<?xml version="1.0" standalone="no"?><!DOCTYPE svg PUBLIC "-//W3C//DTD SVG 1.1//EN" "http://www.w3.org/Graphics/SVG/1.1/DTD/svg11.dtd"><svg t="1720149339722" class="icon" viewBox="0 0 1024 1024" version="1.1" xmlns="http://www.w3.org/2000/svg" p-id="719" xmlns:xlink="http://www.w3.org/1999/xlink" width="1em" height="1em"><path d="M131.356444 967.111111C89.656889 967.111111 56.888889 932.181333 56.888889 887.523556v-79.530667h58.254222V887.466667c0 11.036444 5.802667 17.294222 16.099556 17.294222h249.742222a18.773333 18.773333 0 0 0 16.099555-17.294222V136.533333c0-11.036444-5.802667-17.237333-16.156444-17.237333H131.413333a18.773333 18.773333 0 0 0-16.099555 17.237333v82.090667H57.002667V136.476444C57.002667 91.818667 89.770667 56.888889 131.470222 56.888889h249.173334C422.286222 56.888889 455.111111 91.818667 455.111111 136.476444V887.466667C455.111111 932.181333 422.343111 967.111111 380.586667 967.111111H131.413333z" fill="#666666" p-id="720"></path><path d="M186.026667 627.996444a26.112 26.112 0 0 1-18.944-8.135111L56.888889 499.882667l108.771555-118.442667a26.282667 26.282667 0 0 1 38.684445-0.967111l0.910222 0.967111c10.865778 11.889778 11.264 30.037333 0.910222 42.325333l-41.415111 45.112889h204.8v62.293334H164.864l40.561778 44.145777c10.808889 11.889778 11.150222 29.923556 0.853333 42.211556l-0.910222 1.024v0.398222a24.860444 24.860444 0 0 1-19.342222 9.045333z m456.817777 339.057778c-37.831111-3.299556-66.901333-36.977778-66.901333-79.075555V136.419556c0-44.600889 32.142222-79.587556 73.102222-79.587556h244.906667C934.912 56.888889 967.111111 91.818667 967.111111 136.476444v79.530667h-57.287111V136.476444a18.773333 18.773333 0 0 0-4.380444-12.515555 16.782222 16.782222 0 0 0-11.377778-5.347556h-245.077334a16.327111 16.327111 0 0 0-15.758222 17.294223v750.933333c0 11.036444 5.688889 17.180444 15.758222 17.180444h244.906667a16.327111 16.327111 0 0 0 15.815111-17.237333V807.253333h56.775111v79.644445c0 44.600889-32.142222 79.530667-73.102222 79.530666h-250.652444L642.844444 967.111111v-0.056889z" fill="#666666" p-id="721"></path><path d="M850.204444 625.777778a23.893333 23.893333 0 0 1-17.180444-7.224889l-0.796444-0.910222a28.558222 28.558222 0 0 1-0.739556-37.944889l37.603556-40.106667H682.666667v-55.125333h186.026666l-36.864-39.367111a28.558222 28.558222 0 0 1-0.739555-37.944889l0.796444-0.853334a24.064 24.064 0 0 1 35.157334-0.910222L967.111111 512.227556l-98.929778 105.415111a23.779556 23.779556 0 0 1-17.92 8.135111" fill="#666666" p-id="722"></path></svg>