<?xml version="1.0" standalone="no"?><!DOCTYPE svg PUBLIC "-//W3C//DTD SVG 1.1//EN" "http://www.w3.org/Graphics/SVG/1.1/DTD/svg11.dtd"><svg t="1720148411276" class="icon" viewBox="0 0 1024 1024" version="1.1" xmlns="http://www.w3.org/2000/svg" p-id="956" xmlns:xlink="http://www.w3.org/1999/xlink" width="1em" height="1em"><path d="M832 688V896a32 32 0 0 1-32 32h-576A32 32 0 0 1 192 896v-208a48.64 48.64 0 0 0-48-48 48 48 0 0 0-48 48V896a128 128 0 0 0 128 128h576a128 128 0 0 0 128-128v-208a48.64 48.64 0 0 0-48-48 48 48 0 0 0-48 48zM896 0H128a128 128 0 0 0-128 128v320a128 128 0 0 0 128 128h768a128 128 0 0 0 128-128V128a128 128 0 0 0-128-128z m32 448a32 32 0 0 1-32 32H128a32 32 0 0 1-32-32V128a32 32 0 0 1 32-32h768a32.64 32.64 0 0 1 32 32z" p-id="957"></path><path d="M490.00855 231.403262m33.941125-33.941125l0 0q33.941125-33.941125 67.882251 0l113.137085 113.137085q33.941125 33.941125 0 67.882251l0 0q-33.941125 33.941125-67.882251 0l-113.137085-113.137085q-33.941125-33.941125 0-67.882251Z" p-id="958"></path><path d="M783.929658 163.201428m33.941125 33.941126l0 0q33.941125 33.941125 0 67.882251l-113.137085 113.137085q-33.941125 33.941125-67.882251 0l0 0q-33.941125-33.941125 0-67.882251l113.137085-113.137085q33.941125-33.941125 67.882251 0Z" p-id="959"></path></svg>